<svg xmlns="http://www.w3.org/2000/svg" viewBox="0 0 965 1469" fill="currentColor"><path d="m305.2 1219 .1-.3a663 663 0 0 0 166 233.7c3 2.7 4 6.8 2.5 10.4a10 10 0 0 1-9 6.2q-1.8 0-3.2-1.3a668 668 0 0 1-193.2-300.3h-.2q-.9 0-1.5-.8A621 621 0 0 1 .1 714.4c.2-1.2 1.3-1.6 2.4-1.6q1.2-.1 2.1 1.1c55.3 82 121.8 156.6 171.7 242.2 32.5 55.7 56.6 116.4 81.2 176q-1.7-6.5-3.8-13.2a1972 1972 0 0 1-68.2-702c-16 11.2-38.1 17-55.4 22-6.5 1.8-30.8 12.2-36.3 5-8.4-11 35.4-25.7 68-33.7-13.6 0-27.4-2-39.4-3.4-7.2-.9-33-.6-35.1-9.5-4-17 68.2-7.4 96.7-.4a134 134 0 0 1-20.6-97.3c3.4-18.2 18.3-46.1 42.2-43.3 21.4 2.5 30 35.6 29.3 52.3a158 158 0 0 1-32.6 88.1c19.6-4.7 42.8-1.3 61.6 1 7.1.9 33 .6 35 9.4 2.9 12-32.2 10.8-63.1 6.7 8 3.5 15.6 7.5 22.4 11 6.2 3 32.7 12.7 32 21.9-1 15.5-34.9-3-39-4.8-16.5-6.8-36.1-14.2-51-25.7a1903 1903 0 0 0 70.2 701.4 964 964 0 0 0 34.8 101.3m-19.7-772.4c.7-4.7-35.5-20.2-39.2-22-13.6-6.3-29.9-14.5-45.7-16v.4c21.2 13.6 83.9 43.8 84.9 37.6m-81.8 663.6a854 854 0 0 0 54.2 42.2 796 796 0 0 1-89.5-142.5c-.7-1.1 1-2.2 1.7-1a796 796 0 0 0 90.6 143.9l-2.6-6.1q-28.1-46.7-54.4-94.2c-.6-1 1-2 1.7-1q22.9 41.4 47 82h.3C228.2 1074 204.4 1014 172 958.6 123.8 876.2 60.4 803.9 6.3 725.3c28.9 82 58 164 95.5 242.6a545 545 0 0 0 46.6 81.9 426 426 0 0 1-43.2-70.2C66 900.2 36.2 816.6 7 733.2a617 617 0 0 0 166.7 348.2q-13.7-15.1-25.3-31.7c16.5 21.9 35 41.7 55.3 60.5m0 0-7.1-6.3zm-52.5-134q-1.5-5.7-4.9-10.5c-.7-1 1-2.1 1.7-1q3.5 5 5 11c.3 1.2-1.6 1.7-2 .5m40.8 101.5-20-31.6c-.7-1 1-2 1.7-1l20 31.6c.8 1-1 2.1-1.7 1m-39.7-63q-3.3-9.4-8.2-17.8c-.6-1 1-2 1.7-1q5.1 8.8 8.4 18.4c.4 1.2-1.5 1.7-2 .5m15-677.7a138 138 0 0 0 24 62l1.8.8.6-.2A149 149 0 0 0 226 335c4.2-19.7 7.5-75.2-25.4-73-34 2.4-36 52.6-33.2 75m49.6-24.1c.1 1.2-1.8 1.7-2 .4l-1.2-9c-.1-1.2 1.9-1.7 2-.5zm-8.2-21.1c.2 1.2-1.7 1.7-2 .5l-2.3-11c-.2-1.1 1.7-1.6 2-.4zm-5 18.2c0 1.4-2 1.4-2 0v-7.8c0-1.4 2-1.4 2 0zm-10-30.8c-1.3 0-1.3-2 0-2s1.4 2 0 2m7.4 88.4c-.3 1.3-2.2.7-2-.5l1.1-6.6c.3-1.4 2.2-.7 2 .5zm-10.4-71.8c.7-1.2 2.4 0 1.8 1-14.6 26.5-8.5 55-.5 82.4.4 1.2-1.6 1.7-2 .5-8.2-28-14.2-57 .7-83.9m6.5 49.9c0 1.3-2 1.3-2 0q-.5-12.6 1.1-24.8c.1-1.2 2.1-1.2 2 0q-1.6 12.2-1.1 24.8m5.9-6.2c-.2 1.3-2.1 1.3-2 0l1.1-12c.1-1.2 2-1.2 2 0zm7.3 3.1c-.1 1.3-2 1.3-2 0q1-10.5 2.6-20.8c.3-1.3 2.2-.7 2 .5q-1.7 10-2.6 20.2m40 58.8c-15.6-1.4-35-3.7-50.7 1.2l3.5 1.2q8.9 1.2 17.7 4.2c10.6 1.6 21.4 2 31.3 2.6 7 .3 33.2 5.4 39.5.6 5.6-4.2-8.2-5.4-10.8-5.9q-15-2.6-30.4-4m218.4 1060q1-3-1.1-5a668 668 0 0 1-167.3-235.5 973 973 0 0 1-35.1-101.8 1907 1907 0 0 1-70.3-706.7l-2-1.9-2.5 2.5c-20.2 238 2.6 475 67.6 704.8A975 975 0 0 0 292 1219a662 662 0 0 0 172.8 245.3c2.2 0 3.7-1.6 4.2-3m-330.3-1030c15.2-4.8 34.1-10 47.1-20.6v-.9c-15.8.6-32.1 6.9-46.6 11.8-6.5 2.2-40.3 10.4-41.2 17.9-.5 3.7 10 0 14.1-1q13.5-3 26.5-7.3m-3-27.9h.2c15.5 1.4 35 3.7 50.6-1.2-16.2-6.5-35.7-7-52.5-8-7-.3-33.2-5.3-39.5-.5-5.6 4.1 8.3 5.3 10.8 5.8q15.1 2.7 30.5 4m466-88v.6q0 .5-.4 1.1C561.3 378 529 444 484.6 502c-33.3 43.3-74 80.9-112.3 119.8l-.2.3q-6.3 64.8-9 130.1c-8.2 208.7 23.2 409.2 90.6 579.7a7.4 7.4 0 0 1-7 10.3c-4.3 0-8-2.5-9.7-6.5-68-165.8-98.3-361-90.5-580.5a220 220 0 0 1-105.8-148.5q0-1.5.7-2.3 1.2-1.5 2.9-.7.5.3 1 1c21 25.6 45 48.7 64.6 75.6 14.4 20 25.5 42.2 36.9 64 8-194.9 43.6-385.4 83.3-579.3-15.9 11.3-38 17-55.4 22-6.5 1.8-30.7 12.2-36.3 5-8.3-11 35.5-25.7 68-33.7-13.5 0-27.4-2-39.4-3.4-7-.9-33-.6-35-9.4-4.1-17.8 72.7-7 99.3 0a136 136 0 0 1-23.6-102C411 25.4 426-2.6 450 .3c21.4 2.6 30 35.7 29.3 52.3a159 159 0 0 1-36.9 93.4c20.5-6.7 46-2.8 66.4-.3 7 .8 33 .6 35 9.4 2.9 12-32.2 10.8-63.1 6.6 8 3.6 15.6 7.6 22.4 11 6.2 3.1 32.6 12.8 32 22-1 15.5-35-3.1-39-4.8-16.4-6.9-35.7-14.1-50.5-25.2-28.2 142.4-54.7 283-70 424.6A455 455 0 0 1 598.3 313c.9-.7 1.7-.4 2.5 0h.2a2 2 0 0 1 .9 2.4M383.4 178.6h.2c15.5-4.9 35-10.4 48-21.4-16 .4-32.7 6.7-47.4 11.8-6.7 2.2-40.5 10.4-41.4 17.8-.4 3.8 10.1.2 14.1-.8q13.5-3 26.5-7.4m200.8 148a451 451 0 0 0-206.7 273.7q31.1-68.9 70-133.6c.6-1.1 2.3-.2 1.7 1A1313 1313 0 0 0 375 610.3l-.4 1.2 3-3c57.6-102.9 128.1-194.4 206.5-282m-122.3 125c-.7 1.1-2.4.1-1.7-1l9.4-13.3c.8-1.1 2.5-.2 1.8 1zM380.4 151h.1c15.6 1.3 35 3.6 50.7-1.3-16.2-6.5-35.7-7-52.5-8-7-.3-33.3-5.3-39.5-.5-5.7 4.1 8.2 5.4 10.8 5.8q15 2.8 30.4 4M444.7 5.6h-.2c-34 2.3-35.9 52.5-33.2 75a139 139 0 0 0 25.4 63.9c16.2-19.1 28-41.2 33.3-66 4.2-19.6 7.5-75.1-25.3-72.9m10.5 29c.4 1.3-1.6 1.7-2 .5l-4.4-14.4c-.3-1.3 1.6-1.7 2-.5zm-9 8.8c0 1.4-2 1.4-2 0v-6c0-1.3 2-1.3 2 0zM434.7 29c-11 28-11.2 57-1 85 .4 1.2-1.4 1.7-1.9.5a119 119 0 0 1 1-86c.5-1.2 2.4-.7 2 .5m7 63.6h.2c.2 1.3-1.8 1.8-2 .6a131 131 0 0 1-2.7-36c0-1.1 2-1.3 2 0a131 131 0 0 0 2.5 35.4m3.6-21.5.6-6c.1-1.2 2-1.2 2 0l-.6 6c-.2 1.2-2.1 1.2-2 0m11 6.3c-.3 1.3-2.3.7-2-.5q2.2-8.2 1.8-16.7c-.1-1.3 2-1.2 2 0q.4 8.8-1.8 17.2m-5.7 24.3c.6-1.2 2.3 0 1.7 1a102 102 0 0 0-4.7 9.8c-.5 1.2-2.2.3-1.7-1q2.2-5 4.7-9.8M439 18.5c-1.3 0-1.3-2 0-2s1.4 2 0 2M530.1 194c.6-4.7-35.5-20.2-39.2-22-13.7-6.3-30.4-14.8-46.4-16 20.6 13.2 84.5 44.3 85.6 38M495 148.9c-15.7-1.4-35-3.7-50.7 1.2q1.6.8 3.4 1.2 8.9 1.2 17.8 4.2c10.5 1.6 21.3 2 31.3 2.6 7 .3 33.2 5.4 39.4.6 5.7-4.2-8.2-5.4-10.8-5.9a318 318 0 0 0-30.4-4M340.8 743.4c-10-19-19.6-38.3-32-56-17.7-25.5-39.9-47.7-60.2-71.3a628 628 0 0 0 92.2 127.3M249.5 622a214 214 0 0 0 89 121.9 625 625 0 0 1-89-121.9M358 751.5l.2.1c7.8-198.7 43.6-392.8 83-590.7l-3-2.8-2 1.7C396 356 359.8 548.9 351.8 746c-9 222.3 21.2 419.8 89.9 587.2.8 2 2.8 3.4 5 3.4q1.4 0 2.1-1 .8-1.1.2-2.4c-67.8-171.2-99.2-372.4-91-581.8M480.6 498h-.1c42.4-55 73.7-117.7 111.2-176l-2 1C511.4 410.2 441 501.1 383.1 603c33.7-33.7 68.4-67 97.5-104.9m484.2 305h.2l-.2.7a512 512 0 0 1-352 248.2c-18 40.4-36.4 81.8-53.5 123-20.3 49.3-41 102.2-52.2 159.6v.8c-.3 1.7-.8 3-3.2 4.1q-1.4.6-2.7.5l-1.7-.1-.9-.4a10.5 10.5 0 0 1-4.9-11c11.2-57.8 32-112.8 53-163.5 15.8-38.2 32.7-76.6 49.5-114.2l-.3-.4-.3-.2-1-1.6q-.5-.2-.6-.6v-.5A357 357 0 0 1 552 754a2 2 0 0 1 2-1.7h.3q1.3-.2 2.2 1 .3.3.2.5v.4c11.8 55.2 30.6 109.1 38.4 165.2 5.7 40.4 4.6 81.6 5 122.2l5.7-13c28-63 57.1-128 82-193.4q23-60.2 38.7-115a221 221 0 0 1-105.9-148.5q0-1.5.8-2.3 1.1-1.5 2.8-.7.6.3 1 1c21 25.6 45.1 48.7 64.6 75.6 15.2 21 26.6 44.4 38.6 67.3a855 855 0 0 0 33.9-214c-16 12.4-39.6 18.4-57.9 23.7-6.5 1.8-30.8 12.2-36.3 5-8.3-10.9 35.4-25.7 68-33.7-13.6 0-27.4-2-39.4-3.4-7.1-.9-33-.6-35.1-9.4-4.2-18 76.5-6.4 101.2.6a136 136 0 0 1-24.6-103.3c3.4-18.2 18.3-46.1 42.2-43.3 21.4 2.6 30 35.6 29.3 52.3a159 159 0 0 1-37.5 94.2c20.5-6.5 45.9-2.7 66.1-.3 7.1.9 33 .6 35 9.4 3 12-32.2 10.8-63 6.7 7.9 3.5 15.5 7.5 22.4 11 6.1 3 32.6 12.7 32 21.9-1.1 15.5-35-3-39.1-4.8-16.1-6.7-35.2-13.8-50-24.8-1.2 103.6-25 213.3-74.9 344.5a3697 3697 0 0 1-82.6 195c41.5-38.7 82.3-79.3 128.2-112.8 67.4-49 144-83.1 214.8-126.7h.2l.6-.3q1.5-.2 2.2.8 1 .9.7 2.2m-345.3 242.4A508 508 0 0 0 951 816.4c-92 95-202.8 160.7-319.2 221.8a826 826 0 0 0 158.3-75.3c1-.8 2.1 1 1 1.7a838 838 0 0 1-169.1 79.2h-.6zm209.6-111.2c1-.8 2.5.6 1.5 1.5l-10.8 9.7c-1 .8-2.5-.6-1.5-1.5zm-53.8-593.5c-34 2.3-36 52.5-33.3 75a139 139 0 0 0 25.4 63.8c16.2-19 28.1-41.1 33.4-65.8 4.1-19.8 7.4-75.2-25.4-73m-9 22 .2.1c-15 28-10.7 58-1 86.9.3 1.2-1.6 1.7-2 .5-9.8-29.6-14-60 1.1-88.5.6-1.2 2.3 0 1.7 1m1.6 56h.1c.2 1.2-1.8 1.7-2 .5q-2-14.8-.7-29.8c.2-1.2 2-1.3 2 0q-1.4 14.6.6 29.3m6.2-5.5c-.3 1.3-2.2.7-2-.5l1.7-9c.3-1.4 2.2-.8 2 .4zm9.6 1.6c0 1.2-2 1.2-2 0l1.7-13.3c.1-1.2 2-1.2 2 0zm-1.8-49.4c0 1.4-2 1.4-2 0v-12c0-1.3 2-1.3 2 0zm-3.3 87c-.6 1.3-2.3.2-1.7-.9q5.2-10.5 8-22c.3-1.3 2.2-.7 2 .6a96 96 0 0 1-8.3 22.4m17.2-66.2c.2 1.3-1.8 1.7-2 .5q-.7-2.5-1.2-5.4c-.3-1.2 1.7-1.7 2-.5q.5 2.8 1.2 5.4m64 144c.7-4.7-35.5-20.3-39.2-22-13.7-6.4-30.4-14.8-46.3-16 20.6 13.2 84.5 44.3 85.6 38M824.7 485c-15.6-1.3-35-3.7-50.7 1.2l3.5 1.3q9 1.1 17.7 4.1c10.6 1.6 21.4 2 31.3 2.6 7 .4 33.3 5.4 39.5.6 5.7-4.2-8.2-5.4-10.8-5.9q-15-2.6-30.4-3.9m-234.6 547.2a1455 1455 0 0 1-36.8-264.3 351 351 0 0 0 31.3 254.3q-12.2-38.7-20.9-78.5c-.2-1.2 1.7-1.7 2-.5q9.8 45 24.2 88.7zm-34-122c-.3-1.3 1.6-1.7 1.9-.5l3.8 21.7c.2 1.2-1.7 1.7-2 .5zm198.3 17.5c-39.6 28.2-75.1 61.7-110.5 95.1a973 973 0 0 1 91.6-62.5c1-.8 2.1 1 1 1.7q-56.8 34-108.5 75.7l-.9.7C746.3 976 860 909 953.7 810.8c-66 39.6-136.4 72.2-199.3 116.8M710.2 487c15.7 1.3 35 3.7 50.7-1.2-16.2-6.5-35.7-7-52.5-8-7-.4-33.2-5.4-39.4-.6-5.7 4.2 8.2 5.4 10.7 5.9q15.2 2.6 30.5 3.9m-23.6 35h.1q13.5-3 26.5-7.3c15.6-5 35-10.4 48.1-21.4-16 .3-32.7 6.7-47.5 11.7-6.6 2.2-40.4 10.4-41.3 17.9-.5 3.8 10 .1 14.1-.9m35.7 190c-10.3-20-20.5-40.3-33.3-59-18-25.9-40.7-48.3-61.3-72.3l.3 1q42.8 65.4 90.4 127.7zm-92.7-124.2a214 214 0 0 0 83.5 118q-43.6-57.6-83.5-118M594.9 1040h.1c-.4-40 .6-80.2-4.9-119.8-7-50-22.8-98.5-34.5-147.8q6.7 134.4 37.8 265.2zm-40.4 133.2c19-45.9 39.5-91.8 59.4-136.4 28-63 57.1-128 82-193.5C746.2 711 770 600.7 770.6 496.7l-2.8-2.7-.4.3c-1.4 103-25.3 212.3-74.9 342.8a3690 3690 0 0 1-82.2 193.7 5136 5136 0 0 0-59.2 136.2c-20.8 50.6-41.6 105.2-52.6 162.5-.4 2 .5 4.3 2.2 5.5h1.1l.4-1.2c11-58 31.9-111 52.3-160.6"/></svg>