<svg xmlns="http://www.w3.org/2000/svg" viewBox="0 0 967 176" fill="currentColor"><path d="M175 8c39 16 63 46 63 80q-2 25-8 35-6 11-16 11H97c-28 0-41-18-29-40 12-21 38-56 52-74q10-12-2-10C62 10 18 47 18 88c0 45 39 77 101 77 26 0 55-5 78-26h21c-24 27-65 37-99 37C42 176 0 133 0 88 0 38 49 0 119 0c14 0 30 1 40 4s8 8 5 11c-19 24-49 63-59 83q-8 17 10 16h94c7 0 11-13 11-27 0-29-14-56-50-71zm762 73c40 0 40 53 0 54H709c-18 0-37-15-37-30V56l-52 32 63 46h-48l-40-30-47 30H319q-49-2-48-44V47h33v50q0 20 19 20h68q6-16 20-26h-22c3-24 27-44 60-44h116l41 30 46-30h53v52q-1 17 20 18h54V47h33v70h108c13 0 13-19 0-19h-98c0-18 10-51 56-51h81v17h-76q-21 1-25 17zm-395 36 37-24-52-38v9h-72c-17 0-24 10-26 17h92v17h-69c-15 0-20 10-21 19z"/></svg>